<svg width="1200" height="900" viewBox="0 0 1200 900" fill="none" xmlns="http://www.w3.org/2000/svg">
  <rect width="1200" height="900" fill="#F2ECE3"/>
  <rect x="90" y="80" width="1020" height="740" rx="18" fill="#DDD2C2"/>
  <rect x="170" y="120" width="860" height="620" rx="12" fill="#ECE7DE"/>
  <rect x="510" y="120" width="190" height="620" fill="#6D5241"/>
  <rect x="220" y="170" width="240" height="470" rx="10" fill="#C9B196"/>
  <rect x="740" y="170" width="240" height="470" rx="10" fill="#D7DDE3"/>
  <rect x="250" y="205" width="180" height="125" rx="6" fill="#F8F5EF"/>
  <rect x="250" y="352" width="180" height="125" rx="6" fill="#EFE7DB"/>
  <rect x="770" y="205" width="180" height="125" rx="6" fill="#F5F6F8"/>
  <rect x="770" y="352" width="180" height="125" rx="6" fill="#E8ECF0"/>
  <rect x="450" y="585" width="300" height="78" rx="10" fill="#A07A5E"/>
  <rect x="355" y="640" width="490" height="85" rx="10" fill="#D5C5B0"/>
  <rect x="0" y="760" width="1200" height="140" fill="#C9BAA3"/>
  <rect x="0" y="790" width="1200" height="110" fill="#3B4048"/>
  <rect x="230" y="95" width="740" height="25" fill="#F8F5EF" fill-opacity="0.8"/>
  <circle cx="600" cy="270" r="58" fill="#EBD3A4"/>
  <circle cx="600" cy="270" r="34" fill="#FFF7EA"/>
</svg>
